<svg enable-background="new 0 0 315.7 255.5" viewBox="0 0 315.7 255.5" xmlns="http://www.w3.org/2000/svg"><path d="m45 43.9c-20.3-18.2-54.3 2.8-42.7 32 11.5 29 56.8 28 72.1 42.1 1.4-20.8 35.1-51 23.7-80-11.6-29.3-50.8-21.3-53.1 5.9z" fill="#e75d7d"/><circle cx="174.9" cy="161.4" fill="#dee5ff" r="94"/><path d="m146.6 194h3 51.9 15.8c-.7 17.1-.7 34.1 0 51.3 30.6-15.5 51.6-47.3 51.6-83.9 0-51.9-42.1-94-94-94s-94 42.1-94 94c0 37.6 22.1 70.1 54.1 85.1 3.1-19.9 7-37.2 11.6-52.5z" fill="none"/><path d="m146.6 194c-4.6 15.3-8.5 32.6-11.6 52.5 8.6 4 17.9 6.8 27.7 8.1-4.9-19.4-9.2-39.5-13.1-60.6z" fill="#161591"/><path d="m217.3 194h-15.8c-3.6 16.4-8.2 36.6-13.8 60.5 10.5-1.4 20.5-4.6 29.6-9.2-.7-17.2-.7-34.2 0-51.3z" fill="#2f2cc6"/><path d="m149.6 194c3.9 21.1 8.2 41.2 13.1 60.6 4 .5 8.1.8 12.2.8 4.3 0 8.6-.3 12.8-.9 5.6-23.9 10.2-44.1 13.8-60.5z" fill="#2f2cc6"/><g clip-rule="evenodd" fill-rule="evenodd"><path d="m60.2 46.6c5.8 10.8 5.1 38.2-2.4 40.1-3 .8-9.3-1.1-15.8-5l4.1 28.8h-24l8.3-38.5c-4.6-5.4-7.7-12-7.2-19.5 1.5-21.4 31.2-16.7 37-5.9z" fill="#01e9e0" transform="matrix(-1 0 0 1 218 0)"/><path d="m49.8 34.7c-3.2-.5-11.7-.9-13.3-.9-1 0-2.1.2-2.7-.7-.5-.8-.3-2-.5-2.9-.2-1-.4-2-.7-3-.7-2.9-1.7-5.6-3.2-8.1-2.7-4.8-6.7-8.5-11.8-10.7-5.5-2.4-11.8-3-17.8-2.5-6.4.5-12.3 2.6-18.3 4.6-5.8 1.9-11.9 2.7-17.9 1.7-6.1-.9-10.7-4.2-15.9-7.4-5.3-3.2-11.3-5.3-17.5-4.8-5.8.5-11.2 2.9-16 6.1-4.5 3-8.2 6.6-10.3 11.7-2.3 5.5-2.3 11.5 1.5 16.3 5.4 7 15.4 8.8 23.7 8.6 4.8-.1 9.5-1 14.1-2.6 6-2.1 11.3-5.7 16.9-8.7 2.7-1.4 5.4-2.5 8.3-3.3 2.8-.8 5.5-1.1 8.1.5 2.7 1.8 5.1 3.5 8.1 4.7 2.9 1.1 6 1.7 9.2 1.6 6.1 0 12.1-1.9 18-3.2 4.8-1 10-2.1 14.9-1.1 2 .4 5 1.3 5.8 3.4-12.5 2.3-17.3 17.7-13.8 29 1.9 6.1 13.3 13.2 17.7 10 2.8-2 1.1-4.7 0-6.5-2.1-3.4-2.8-7.7 1.1-10.1 3.4-2 6.9 2.8 7 2.8.9-.1 8.9-4.6 14.4-11.2 5.4.3 6.3-3.3 5-6.2-1.6-2.7-9.8-6.4-14.1-7.1z" fill="#fdba05" transform="matrix(-1 0 0 1 218 0)"/><g transform="matrix(-1 0 0 1 278 82)"><path d="m164.7 30.7-34.7 19 12.8 13.8 25.2-23.1 18.4-7.7-.1-.3c-1-1.4-2.5-1.4-3.9-1.3-1.1 0-2.1.1-2.8-.6-1.4-1.5 1.3-6.9 4.1-11.9s-.2-4.5-1.9-3.8zm34.9 26.7-15.2 8.4.9 15.3s9.9-7.1 18.4-9.5c10.8-3 15.2-5.3 20.5-12.1 2.8-3.6 5.2-10.9 2.5-13.2-1-.9-4.9 1.2-8.8 3.4-3 1.7-6 3.4-7.9 3.7-2.5.5-2.2-2.8-2-5.4.2-1.9.3-3.4-.6-3-4.6.2-7.8 12.4-7.8 12.4z" fill="#7bf4f3"/><path d="m113.4 37.2c12 1.8 28.4 1.8 47.2-6.4l4.3 16c-13.6 9.8-31.7 16.8-46.2 14.1-11.2-2.1-14.9-16.8-5.3-23.7z" fill="#2026a2" transform="matrix(.98768833 -.15643452 .15643452 .98768833 -4.801222 26.49083)"/><path d="m80.3 149.3c-11.6-1.5-22.2-2.9-28.5-1.7-7.1-22.9-1.2-37.4 4.2-50.7 3.3-8 6.4-15.7 6.4-24.5 0-25.8 20.7-65.4 23.7-65.4h27.7c1.2 15.9 6.5 33.2 11.9 50.6 1.2 4.1 2.5 8.1 3.7 12.2 20.2 4.6 64.9-11.4 64.9-11.4s11.3 23.4 10.5 33.3c-26.1 13.6-48.4 19.7-66.8 20.1.6 10.9-.7 21.3-5.2 30.8-6 12.7-30.9 9.5-52.5 6.7z" fill="#061c97"/></g></g></svg>